<svg width="191" height="46" viewBox="0 0 191 46" fill="none" xmlns="http://www.w3.org/2000/svg">
<g clip-path="url(#clip0_2_325)">
<path d="M56.0127 32.2345H69.6842V28.0945H60.8749V12.5005H56.0127V32.2345Z" fill="white"/>
<path d="M77.8188 32.6715C87.6805 33.005 87.6805 17.3765 77.8188 17.71C67.9341 17.388 67.9341 32.9935 77.8188 32.6715ZM77.7959 29.4745C73.826 29.8195 73.8489 20.5505 77.7959 20.8955C81.7772 20.562 81.7886 29.8195 77.7959 29.4745Z" fill="white"/>
<path d="M93.1261 28.1175C89.4651 28.3935 89.488 20.8035 93.1261 21.0795C96.9129 20.953 96.9701 28.3015 93.1261 28.1175ZM93.149 37.1105C103.182 38.249 99.5557 23.805 100.173 18.0895H95.8947V19.6075H95.8375C92.4282 15.203 85.5181 18.7795 85.9758 24.7365C85.7584 30.613 92.3138 33.511 95.6659 29.8195H95.7803V31.2225C96.3409 34.224 91.3414 34.799 90.6206 32.545H86.2846C86.7194 35.5005 89.2821 37.099 93.149 37.099V37.1105Z" fill="white"/>
<path d="M109.017 32.6715C118.879 33.005 118.879 17.3765 109.017 17.71C99.1324 17.388 99.1324 32.9935 109.017 32.6715ZM108.994 29.4745C105.024 29.8195 105.047 20.5505 108.994 20.8955C112.975 20.562 112.987 29.8195 108.994 29.4745Z" fill="white"/>
<path d="M117.826 16.146H122.299V12.5005H117.826V16.146ZM117.826 32.2345H122.299V18.101H117.826V32.2345Z" fill="white"/>
<path d="M131.6 29.1985C127.596 29.4975 127.596 21.1025 131.52 21.3095C135.296 20.93 135.261 29.532 131.6 29.1985ZM124.244 36.9035H128.717V30.774H128.775C132.527 35.19 139.346 31.5445 138.877 25.1735C139.391 18.8715 132.355 15.042 128.603 19.8145H128.523V18.101H124.244V36.892V36.9035Z" fill="white"/>
<path d="M146.165 32.6715C154.356 33.1315 154.493 23.4255 147.183 23.3105C139.827 22.839 146.691 17.9285 148.007 22.2065H152.125C152.434 16.445 139.529 15.962 139.712 22.2065C139.277 27.7495 147.16 25.3 148.338 28.336C148.213 30.521 143.419 30.0955 143.556 27.646H139.323C139.461 30.7625 142.046 32.6715 146.165 32.6715Z" fill="white"/>
<path d="M158.635 32.6485C160.58 32.6485 161.816 31.878 162.834 30.498H162.914V32.2345H167.193V18.101H162.719C162.193 20.3895 164.401 29.0145 160.248 28.842C156.45 29.1755 158.715 20.056 158.132 18.101H153.681C154.196 22.3445 151.439 32.9935 158.624 32.6485H158.635Z" fill="white"/>
<path d="M169.148 32.2345H173.621C174.136 30.061 172.043 21.3785 175.841 21.4475C179.433 21.183 177.248 30.36 177.82 32.2345H182.293C182.808 30.061 180.703 21.367 184.513 21.4475C188.105 21.183 185.92 30.36 186.492 32.2345H190.965V23.046C191.469 17.6065 184.49 15.709 181.767 20.171H181.71C180.371 16.79 174.937 17.0545 173.496 20.1135H173.415V18.101H169.137V32.2345H169.148Z" fill="white"/>
<path d="M28.7043 1.2075L24.2082 0L20.4214 14.2255L16.9892 1.38L12.4931 2.5875L16.1884 16.468L6.97874 7.2105L3.68386 10.5225L13.7859 20.677L1.20126 17.2845L0 21.804L13.7515 25.507C10.9257 10.557 34.7221 10.5455 31.9077 25.4955L44.4008 28.865L45.602 24.3455L31.7933 20.631L44.3779 17.2385L43.1766 12.719L29.3679 16.4335L38.5775 7.176L35.2827 3.864L25.3179 13.8805L28.6929 1.219L28.7043 1.2075Z" fill="#CC9601"/>
<path d="M31.8966 25.553C31.5077 27.1975 30.6954 28.6695 29.5742 29.8425L38.6237 38.939L41.9186 35.627L31.8852 25.5415L31.8966 25.553Z" fill="#CC9601"/>
<path d="M29.4827 29.946C28.3501 31.1075 26.92 31.97 25.3184 32.4185L28.6132 44.781L33.1094 43.5735L29.4827 29.9575V29.946Z" fill="#CC9601"/>
<path d="M25.1582 32.4645C23.6252 32.867 21.8633 32.8555 20.3418 32.4185L17.0469 44.7925L21.543 46L25.1582 32.4645Z" fill="#CC9601"/>
<path d="M20.1808 32.3725C18.602 31.901 17.1948 31.027 16.0851 29.8655L7.0127 38.985L10.3076 42.297L20.1808 32.3725Z" fill="#CC9601"/>
<path d="M16.017 29.785C14.9301 28.612 14.1293 27.163 13.7517 25.5415L1.21289 28.9225L2.41415 33.442L16.0055 29.785H16.017Z" fill="#CC9601"/>
</g>
<defs>
<clipPath id="clip0_2_325">
<rect width="191" height="46" fill="white"/>
</clipPath>
</defs>
</svg>
