<svg width="32" height="23" viewBox="0 0 32 23" fill="none" xmlns="http://www.w3.org/2000/svg">
<path d="M31.0672 4.03659C30.892 3.3767 30.5466 2.7744 30.0654 2.29002C29.5842 1.80563 28.9842 1.45616 28.3255 1.27659C25.9061 0.624024 16.2078 0.624023 16.2078 0.624023C16.2078 0.624023 6.50836 0.624024 4.09008 1.27659C3.43115 1.45599 2.83092 1.80538 2.34954 2.28978C1.86815 2.77417 1.5225 3.37656 1.34722 4.03659C0.69922 6.47088 0.699219 11.5509 0.699219 11.5509C0.699219 11.5509 0.69922 16.6297 1.34722 19.064C1.70379 20.4069 2.75522 21.4206 4.09008 21.7806C6.50836 22.432 16.2078 22.432 16.2078 22.432C16.2078 22.432 25.9061 22.432 28.3255 21.7806C29.6592 21.4206 30.7106 20.4069 31.0672 19.064C31.7152 16.6297 31.7152 11.5509 31.7152 11.5509C31.7152 11.5509 31.7152 6.47088 31.0672 4.03659ZM13.0352 16.1623V6.93831L21.1415 11.5509L13.0352 16.1623Z" fill="white"/>
</svg>
